<svg width="256" height="256" viewBox="0 0 256 256" fill="none" xmlns="http://www.w3.org/2000/svg">
  <rect width="256" height="256" rx="56" fill="url(#bg)"/>
  <path d="M82 66C69.8497 66 60 75.8497 60 88V168C60 180.15 69.8497 190 82 190H116C144.719 190 168 166.719 168 138V118C168 89.2812 191.281 66 220 66" stroke="#0F172A" stroke-width="16" stroke-linecap="round"/>
  <path d="M104 88H128C140.15 88 150 97.8497 150 110V138C150 150.15 140.15 160 128 160H104" stroke="#2563EB" stroke-width="16" stroke-linecap="round"/>
  <path d="M194 66V190" stroke="#0F172A" stroke-width="16" stroke-linecap="round"/>
  <path d="M194 190H226" stroke="#14B8A6" stroke-width="16" stroke-linecap="round"/>
  <circle cx="60" cy="88" r="18" fill="#0F172A"/>
  <circle cx="60" cy="168" r="18" fill="#0F172A"/>
  <circle cx="168" cy="138" r="18" fill="#2563EB"/>
  <circle cx="220" cy="66" r="18" fill="#14B8A6"/>
  <circle cx="194" cy="190" r="18" fill="#0F172A"/>
  <defs>
    <linearGradient id="bg" x1="24" y1="16" x2="228" y2="236" gradientUnits="userSpaceOnUse">
      <stop stop-color="#EFF6FF"/>
      <stop offset="0.52" stop-color="#F8FAFC"/>
      <stop offset="1" stop-color="#ECFEFF"/>
    </linearGradient>
  </defs>
</svg>
